<?xml version="1.0" standalone="no"?>
<!DOCTYPE svg PUBLIC "-//W3C//DTD SVG 20010904//EN"
 "http://www.w3.org/TR/2001/REC-SVG-20010904/DTD/svg10.dtd">
<svg version="1.0" xmlns="http://www.w3.org/2000/svg"
 width="500.000000pt" height="500.000000pt" viewBox="0 0 500.000000 500.000000"
 preserveAspectRatio="xMidYMid meet">
<metadata>
Created by potrace 1.11, written by Peter Selinger 2001-2013
</metadata>
<g transform="translate(0.000000,500.000000) scale(0.100000,-0.100000)"
fill="#000000" stroke="none">
<path d="M2662 4743 c-25 -5 -42 -35 -92 -163 -18 -47 -41 -104 -51 -127 -11
-24 -19 -45 -19 -48 0 -5 -253 -643 -269 -680 -5 -11 -57 -141 -116 -290 -59
-148 -113 -283 -120 -300 -7 -16 -52 -129 -100 -250 -48 -121 -93 -233 -100
-250 -31 -72 -239 -608 -318 -820 -83 -224 -205 -601 -257 -800 -4 -16 -33
-123 -64 -237 -31 -113 -56 -215 -56 -225 0 -28 80 -189 88 -178 4 6 28 27 55
48 26 21 52 47 58 58 12 24 86 265 194 639 42 146 84 285 92 310 17 51 65 160
70 160 3 0 52 -28 111 -63 149 -87 286 -154 357 -172 57 -15 77 -18 193 -30
115 -13 213 -29 267 -46 358 -109 463 -135 580 -144 208 -15 229 -36 250 -250
19 -196 20 -207 34 -284 24 -126 85 -239 174 -322 28 -26 37 -29 75 -25 77 10
115 37 145 106 16 34 36 91 45 125 16 63 14 101 -12 220 -2 11 -14 65 -26 120
-30 139 -86 394 -109 490 -19 82 -90 378 -96 405 -6 21 -76 302 -81 320 -5 23
-58 228 -125 490 -33 129 -62 243 -64 253 -2 9 -6 21 -9 25 -3 5 -8 23 -11 41
-3 18 -19 83 -35 145 -17 61 -43 161 -60 221 -39 147 -50 189 -49 195 0 3 -4
17 -10 33 -6 15 -13 38 -15 50 -3 12 -34 128 -71 257 -36 129 -68 244 -70 255
-22 99 -79 260 -125 350 -60 119 -222 396 -230 394 -3 -1 -15 -4 -28 -6z m35
-646 c2 -3 77 -347 97 -452 10 -50 168 -797 181 -855 8 -36 25 -119 39 -185
14 -66 48 -226 75 -355 28 -129 52 -246 54 -260 3 -14 14 -69 26 -124 12 -54
20 -100 18 -103 -3 -3 -94 8 -177 22 -14 2 -45 7 -70 10 -25 3 -74 11 -110 16
-36 6 -80 12 -99 15 -19 2 -46 6 -60 9 -14 2 -89 13 -166 25 -77 11 -149 21
-160 24 -11 2 -42 7 -70 10 -27 4 -61 9 -75 11 -14 2 -88 13 -165 25 -77 11
-156 23 -175 25 -54 8 -94 16 -96 18 0 1 106 270 236 597 130 327 322 808 425
1068 l187 473 41 -5 c22 -3 42 -7 44 -9z"/>
</g>
</svg>
