<svg enable-background="new 0 0 42.8 140.88" height="140.88" viewBox="0 0 42.8 140.88" width="42.8" xmlns="http://www.w3.org/2000/svg"><g clip-rule="evenodd" fill-rule="evenodd"><path d="m38.703 34.114c-.203-.379-.235-.846-.415-1.242-.845-1.853-1.318-3.895-2.98-5.32-1.169-1.003-2.21-2.156-3.301-3.249-.54-.542-.487-1.053.133-1.497 1.596-1.141 2.385-2.813 2.957-4.599.469-1.461 1.253-2.904.83-4.502-.409-1.549-.919-3.075-1.464-4.583-.513-1.418-1.601-2.09-3.107-2.129-1.473-.04-2.954-.175-4.198.886-.133.113-.38.147-.567.133-1.219-.093-1.217.763-1.23 1.581-.047 2.82-.102 5.64-.11 8.461-.013 4.18-.052 8.362.048 12.541.048 2.022.585 2.384 2.535 2.121 0-3.362 0-6.753 0-10.144 1.061 2.119 2.665 3.686 4.129 5.378.92 1.063 1.648 2.316 2.326 3.558.815 1.492 1.443 3.085 2.232 4.593.492.94 1.275 1.472 2.328 1.142.649-1.151.386-2.138-.146-3.129zm-10.514-12.996c-.114-.118-.229-.235-.345-.353.122-1.101.373-2.206.337-3.301-.067-2.062-.316-4.116-.447-6.177-.021-.317.081-.805.301-.949 1.336-.876 2.889-1.21 4.408-.935.494.089 1.053 1.16 1.154 1.844.477 3.211-.478 6.111-2.562 8.523-.628.727-1.88.914-2.846 1.348z"/><path d="m39.604 132.582c-.061-.618-.337-1.31-.738-1.785-2.387-2.825-4.907-5.54-7.244-8.405-2.012-2.469-1.862-2.488.088-5.028 1.413-1.84 2.61-3.846 3.915-5.77.489-.722-.036-1.201-.499-1.469-.242-.14-.908.132-1.175.413-1.205 1.273-2.329 2.623-3.496 3.934-.728.817-1.479 1.613-2.45 2.67-.109-.781-.174-1.26-.243-1.737-.381-2.631-.742-5.265-1.167-7.888-.058-.354-.438-.656-.668-.982-.14.047-.279.095-.419.142-.068.772-.221 1.549-.188 2.317.123 2.983.37 5.962.449 8.946.092 3.473.04 6.949.091 10.423.008.58.218 1.157.335 1.736.266 1.309 1.309 1.071 2.157.98.919-.099.481-.933.574-1.459.047-.269-.033-.556-.034-.835-.005-1.521-.002-3.041-.002-4.736 3.075 3.538 5.926 6.82 8.798 10.124.217-.112.556-.438.888-.431.87.02 1.081-.614 1.028-1.16z"/><path d="m18.9 31.599c-.55-2.719-1.188-5.422-1.872-8.111-1.102-4.332-2.202-8.666-3.439-12.959-.352-1.221-1.178-2.305-1.787-3.452-.131.039-.262.078-.393.116-.874 2.199-1.748 4.397-2.62 6.596-1.475 3.72-3.014 7.417-4.396 11.171-.818 2.221-1.422 4.525-2.036 6.815-.093.348.284.821.443 1.236.268-.243.684-.438.779-.736.576-1.8 1.071-3.626 1.61-5.438.106-.358.286-.695.439-1.058 2.358 1.374 2.637 1.474 3.84 1.577.51.044 1.024.116 1.521.238 1.263.311 2.512.881 3.778.917.952.026 1.176.284 1.252 1.076.083.869.121 1.762.364 2.59.167.565.589 1.104 1.03 1.511.147.136.911-.066 1.035-.302.282-.536.564-1.234.452-1.787zm-12.633-8.055c1.655-4.171 3.343-8.425 5.03-12.679.172.021.343.042.515.063.968 4.59 1.937 9.181 2.927 13.877-2.855-.425-5.584-.831-8.472-1.261z"/><path d="m19.069 123.597c-.103-1.999-.277-3.997-.293-5.997-.027-3.256-.878-5.747-4.333-7.092-2.92-1.137-4.707-.278-5.802 2.271-1.133 2.637-1.154 5.414-1.182 8.2-.155 3.646.263 7.2 1.66 10.607.89 2.172 2.242 3.196 4.306 2.8 1.009-.194 1.934-.903 2.853-1.453.38-.228.76-.593.946-.987 1.227-2.6 1.454-5.437 1.853-8.229.004-.039-.006-.08-.008-.12zm-4.101 5.093c-.624 1.057-1.787 1.813-2.784 2.606-.125.1-.993-.341-1.083-.655-.543-1.888-1.216-3.793-1.354-5.728-.194-2.706-.137-5.462.16-8.159.175-1.586.975-3.117 1.61-4.624.111-.265.866-.498 1.204-.386 2.399.795 3.87 2.358 3.915 5.033.023 1.386.141 2.77.215 4.154.067 2.761-.494 5.407-1.883 7.759z"/><path d="m18.862 45.43c-.076-.238-.116-.488-.196-.725-.128-.376-.185-.984-.431-1.079-1.128-.433-2.295-.917-3.48-1.022-2.442-.218-4.908-.143-7.355-.312-1.429-.099-2.64.239-3.786 1.169 1.111 2.236 3.285 2.672 5.266 3.023 1.626.289 1.947-.062 2.165 2.361.042.476.001.958-.003 1.438-.049 4.468-.119 8.937-.137 13.405-.006 1.356.126 2.712.204 4.067.051.888.984 1.78 1.959 1.714.933-.063.768-.922.767-1.5-.003-1.83-.117-3.66-.144-5.49-.071-4.802-.105-9.604-.187-14.405-.014-.796.199-1.223 1.061-1.183 1.137.053 2.277.112 3.415.089.431-.009.857-.239 1.286-.368-.137-.394-.277-.786-.404-1.182z"/><path d="m18.984 97.495c-.4-1.664-1.143-3.146-1.846-4.688-1.204-2.641-3.064-4.653-5.105-6.601-1.017-.97-1.693-2.278-1.205-3.665.713-2.021 1.719-3.882 3.822-4.938 1.507-.757 1.448-.874 2.404.45.457-.275.917-.553 1.377-.83-.506-1.351-1.465-1.646-2.537-1.683-.429-.015-.862.151-1.297.208-3.371.434-6.272 3.668-6.104 7.007.125 2.476 1.251 4.543 3.11 6.2 2.114 1.885 3.323 4.337 4.216 6.952.372 1.089-.125 1.853-1.262 1.931-1.129.077-2.275-.109-3.415-.146-.304-.009-.786.017-.879.19-.153.286-.207.817-.036 1.049.462.624 1.07 1.139 1.611 1.707 1.508 1.585 3.505 1.63 5.478 1.706.212.009.527-.241.641-.454.729-1.366 1.431-2.714 1.027-4.395z"/><path d="m34.146 66.588c-.013-.079-.022-.158-.027-.238-.265-4.207-.518-8.415-.799-12.621-.086-1.304-.173-2.615-.391-3.9-.255-1.509-.846-2.869-2.539-3.75-.067.768-.171 1.442-.179 2.118-.04 3.489-.173 6.982-.042 10.465.099 2.601.579 5.186.828 7.784.128 1.333 1.316 2.594 2.637 2.309 1.27-.275.643-1.36.512-2.167z"/></g></svg>